<?xml version="1.0" encoding="UTF-8"?>
<svg id="Layer_1" data-name="Layer 1" xmlns="http://www.w3.org/2000/svg" viewBox="0 0 242.86 185.02">
  <defs>
    <style>
      .cls-1 {
        isolation: isolate;
      }

      .cls-2 {
        fill: #b85858;
      }

      .cls-2, .cls-3, .cls-4, .cls-5 {
        stroke-width: 0px;
      }

      .cls-3 {
        fill: #b95757;
      }

      .cls-4 {
        fill: #c55e5e;
      }

      .cls-5 {
        fill: #c65f5f;
      }
    </style>
  </defs>
  <path class="cls-2" d="M121.43,30.61c-36.79,0-69.75,5.77-92.02,14.89-2.5-1.67-5.51-2.64-8.74-2.64h-4.87c-8.73,0-15.8,7.07-15.8,15.8v110.56c0,8.73,7.07,15.8,15.8,15.8h4.87c8.73,0,15.8-7.07,15.8-15.8v-65.13c21.9,7.57,51.88,12.24,84.96,12.24,67.06,0,121.43-19.19,121.43-42.86s-54.37-42.86-121.43-42.86Z"/>
  <rect class="cls-3" y="42.86" width="242.86" height="30.56"/>
  <ellipse class="cls-5" cx="121.43" cy="42.86" rx="121.43" ry="42.86"/>
  <path class="cls-4" d="M18.97,179.1c-.57,0-.93-.04-.99-.05-1.1-.14-1.87-1.14-1.73-2.24.14-1.1,1.14-1.87,2.24-1.73.16.02,4.19.43,6.89-3.04,2.42-3.12,2.31-8.35,2.06-10.1-.15-1.09.61-2.11,1.7-2.26,1.1-.16,2.11.61,2.26,1.7.05.33,1.08,8.04-2.86,13.12-3.19,4.11-7.6,4.61-9.56,4.61Z"/>
  <g class="cls-1">
    <g class="cls-1">
      <path class="cls-4" d="M43.02,166l15.74-43.91c.95-2.69,1.61-3.11,3.16-3.11h8.11c1.01,0,1.61.5,1.61,1.51,0,.59-.12,1.26-.48,2.18l-15.5,43.24c-1.01,2.85-.36,4.45,1.19,4.45,1.43,0,1.91.92,1.31,2.77l-1.31,3.95c-.72,2.18-1.49,2.69-3.1,3.11-1.37.34-3.81.5-5.25.5-5.3,0-9-4.87-5.48-14.69Z"/>
      <path class="cls-4" d="M63.71,168.86c0-7.56,3.22-16.2,7.63-22.58,6.91-9.82,15.5-13.26,25.45-13.26,4.23,0,9.54,1.18,13.77,3.02,1.37.59,1.73,2.18,1.01,4.11l-9.36,25.77c-1.01,2.85-.36,4.45,1.19,4.45,1.43,0,1.91.92,1.31,2.77l-1.31,3.95c-.72,2.18-1.49,2.69-3.1,3.11-1.37.34-3.81.5-5.25.5-3.99,0-7.21-2.77-6.97-8.14h-.12c-3.99,5.29-9.83,8.31-14.54,8.31-6.91,0-9.71-5.37-9.71-12.01ZM95.12,150.72l2.03-5.54c-1.31-.34-2.92-.67-4.47-.67-4.65,0-8.22,2.85-10.73,6.38-2.33,3.27-4.53,8.06-4.53,12.17,0,2.77,1.31,4.11,3.34,4.11,5.48,0,11.62-8.98,14.36-16.46Z"/>
      <path class="cls-4" d="M138.15,166l4.41-12.42c1.55-4.45.95-6.72-1.49-6.72-5.78,0-13.53,10.33-17.94,22.67l-2.56,7.14c-1.01,2.77-1.61,3.11-3.16,3.11h-8.11c-1.91,0-1.91-1.59-1.13-3.69l13.95-38.79c.89-2.52,1.61-3.19,3.16-3.19h7.45c1.55,0,2.09,1.26,1.13,3.78l-1.25,3.27h.18c4.35-4.2,9.48-8.14,15.85-8.14,5.36,0,8.88,3.69,8.88,10.08,0,2.35-.48,5.21-1.73,8.65l-5.36,15.03c-1.01,2.85-.36,4.45,1.19,4.45,1.43,0,1.91.92,1.31,2.77l-1.01,3.11c-.72,2.18-1.49,2.69-3.1,3.11-1.37.34-3.81.5-5.25.5-5.3,0-8.88-4.87-5.42-14.69Z"/>
    </g>
    <g class="cls-1">
      <path class="cls-4" d="M158.72,166.08c0-14.02,12.1-33.5,27.3-33.5,7.03,0,12.7,5.29,12.7,14.36,0,6.88-2.26,9.66-6.85,11.42-4.71,1.85-13.05,3.78-20.56,4.62-.06.5-.06.92-.06,1.34,0,2.6,2.15,4.45,6.56,4.45,4.11,0,8.11-.92,11.03-2.1,1.25-.5,1.97-.08,2.15,1.76l.54,5.88c.18,2.1-.42,2.85-2.03,3.61-3.1,1.43-8.94,2.94-16.03,2.94-8.88,0-14.72-4.45-14.72-14.78ZM183.93,150.64c2.44-.84,4.11-1.85,4.11-4.45,0-2.01-1.31-3.53-3.46-3.53-4.17,0-8.7,4.95-10.73,10.07,3.4-.34,6.74-.92,10.07-2.1Z"/>
    </g>
    <g class="cls-1">
      <path class="cls-4" d="M232.03,135.78c1.49,0,1.85,1.68,1.13,3.69l-1.37,3.95c-.83,2.35-1.61,3.11-3.16,3.11h-8.22l-5.07,14.1c-2.32,6.46-.18,8.4,2.44,8.4,1.25,0,2.5-.34,3.58-.67,1.19-.42,1.97,0,2.15,1.85l.42,5.12c.18,1.93-.48,2.6-2.5,3.36-3.64,1.34-7.09,2.1-10.43,2.1-6.08,0-10.01-4.2-10.01-11.25,0-2.43.48-5.37,1.55-8.31l5.24-14.69h-4.11c-1.43,0-1.85-1.68-1.13-3.69l1.37-3.95c.83-2.35,1.61-3.11,3.16-3.11h4.53l2.5-6.97c.66-1.85,1.43-2.77,3.16-3.11l8.4-1.59c1.67-.34,2.56.84,1.55,3.61l-2.92,8.06h7.75Z"/>
    </g>
  </g>
</svg>